<svg data-name="グループ 4481" xmlns="http://www.w3.org/2000/svg" width="24" height="24"><path data-name="パス 11" d="M0 0h24v24H0z" fill="none"/><path data-name="パス 12" d="M16.5 3C19.538 3 22 5.5 22 9c0 7-7.5 11-10 12.5C9.5 20 2 16 2 9a5.675 5.675 0 015.5-6A6.617 6.617 0 0112 5a6.617 6.617 0 014.5-2zm-3.566 15.6a26.954 26.954 0 002.42-1.7C18.335 14.533 20 11.943 20 9c0-2.36-1.537-4-3.5-4a4.608 4.608 0 00-3.086 1.414L12 7.828l-1.414-1.414A4.608 4.608 0 007.5 5C5.56 5 4 6.656 4 9c0 2.944 1.666 5.533 4.645 7.9a26.909 26.909 0 002.421 1.7c.3.189.595.37.934.572.339-.2.635-.383.934-.571z"/></svg>